<?xml version="1.0" standalone="no"?>
<!DOCTYPE svg PUBLIC "-//W3C//DTD SVG 20010904//EN"
 "http://www.w3.org/TR/2001/REC-SVG-20010904/DTD/svg10.dtd">
<svg version="1.0" xmlns="http://www.w3.org/2000/svg"
 width="744.000000pt" height="744.000000pt" viewBox="0 0 744.000000 744.000000"
 preserveAspectRatio="xMidYMid meet">
<metadata>
Created by potrace 1.14, written by Peter Selinger 2001-2017
</metadata>
<g transform="translate(0.000000,744.000000) scale(0.100000,-0.100000)"
fill="#000000" stroke="none">
<path d="M2490 6405 l0 -1006 76 6 c150 11 218 37 279 107 35 40 76 115 81
148 15 96 19 254 19 760 0 600 -5 732 -26 773 -7 12 -12 23 -10 25 1 1 -5 15
-13 30 -30 58 -142 117 -274 143 -52 10 -102 19 -113 19 -19 0 -19 -24 -19
-1005z"/>
<path d="M2115 7361 c-2 -2 -26 -5 -53 -7 -148 -11 -395 -96 -587 -202 -70
-39 -189 -118 -221 -147 -7 -5 -35 -30 -64 -55 -51 -43 -125 -117 -169 -170
-11 -14 -32 -38 -46 -55 -119 -140 -281 -428 -394 -700 -23 -55 -46 -109 -51
-120 -30 -64 -163 -468 -174 -527 -2 -13 -9 -43 -16 -68 -7 -25 -14 -53 -16
-63 -2 -10 -5 -26 -8 -35 -3 -9 -8 -30 -10 -47 -3 -16 -10 -52 -16 -80 -6 -27
-12 -63 -15 -80 -5 -31 -13 -82 -20 -125 -30 -195 -40 -349 -40 -640 0 -222 6
-347 20 -465 2 -16 6 -50 9 -75 7 -57 26 -188 32 -217 2 -13 7 -35 10 -50 3
-16 7 -37 9 -48 1 -11 7 -40 13 -65 6 -25 13 -58 16 -75 3 -16 17 -73 30 -125
57 -222 148 -505 187 -582 5 -10 9 -22 9 -28 0 -27 151 -335 220 -450 53 -87
129 -199 150 -220 3 -3 27 -31 53 -62 69 -82 136 -148 238 -232 45 -38 191
-128 266 -166 106 -52 135 -64 228 -95 44 -15 87 -30 95 -33 17 -6 24 -8 60
-16 14 -3 45 -10 70 -17 25 -6 54 -12 65 -13 11 -2 29 -6 40 -9 11 -3 40 -8
65 -11 25 -3 56 -8 70 -11 14 -3 46 -8 73 -10 l47 -5 -2 1002 -3 1001 -220 4
c-223 3 -233 3 -295 18 -70 15 -180 89 -180 120 0 7 -7 18 -15 25 -16 13 -60
147 -71 214 -3 21 -8 48 -10 60 -2 11 -7 53 -10 91 -3 39 -7 86 -9 105 -12
101 -19 339 -18 615 1 360 5 424 43 597 46 211 147 330 292 345 29 3 153 6
276 6 l222 1 -2 1000 -3 1000 -83 1 c-46 0 -85 -1 -87 -4z"/>
<path d="M3867 6804 c-1 -1 -58 -5 -127 -8 -68 -3 -152 -11 -185 -17 -126 -22
-137 -47 -142 -304 -3 -200 4 -258 40 -309 27 -38 94 -66 175 -74 93 -8 475
-7 541 1 50 7 121 39 121 56 0 23 74 81 110 86 3 0 10 3 15 6 20 12 137 0 200
-20 168 -54 352 -198 451 -352 83 -128 117 -243 131 -444 9 -130 11 -2104 2
-2143 -4 -17 -3 -35 2 -38 5 -3 7 -9 4 -14 -3 -4 -7 -57 -10 -117 -3 -59 -8
-121 -11 -138 -6 -31 -13 -75 -19 -110 -6 -39 -68 -158 -117 -222 -52 -69
-120 -138 -178 -182 -19 -14 -41 -32 -48 -39 -22 -21 -181 -94 -207 -96 -14 0
-25 -3 -25 -6 0 -3 -10 -5 -22 -6 -13 0 -75 -4 -138 -8 -63 -5 -146 -10 -185
-12 -92 -6 -1287 -12 -1300 -8 -9 4 -16 143 -19 396 0 60 -4 108 -7 108 -3 0
-5 17 -4 38 1 58 -14 163 -31 209 -16 43 -83 113 -108 113 -8 0 -16 4 -18 9
-5 17 -141 47 -203 46 l-60 0 0 -860 c1 -473 5 -916 9 -985 4 -69 8 -134 8
-144 -1 -11 3 -27 9 -37 9 -17 12 -17 62 -2 28 8 59 17 67 18 8 2 16 4 18 5 1
2 5 3 10 5 89 25 170 108 210 215 29 81 33 108 38 280 3 85 6 162 7 169 2 12
29 15 155 15 94 1 152 -3 153 -9 1 -18 7 -242 13 -490 7 -315 17 -506 31 -595
34 -219 222 -511 411 -639 56 -37 158 -90 187 -95 7 -2 37 -11 67 -20 37 -12
95 -19 180 -21 107 -3 149 0 240 19 75 15 202 68 230 96 3 3 27 23 55 45 98
79 224 220 316 355 24 36 46 67 49 70 7 7 29 43 37 60 4 8 9 17 13 20 6 5 138
236 154 270 4 8 12 24 19 35 7 11 32 56 56 100 88 160 160 255 233 309 50 37
138 43 226 16 34 -10 62 -16 62 -14 0 3 9 0 21 -6 11 -6 30 -13 41 -15 41 -8
40 -2 38 -180 -1 -113 5 -211 15 -255 4 -14 8 -37 11 -53 3 -15 12 -39 20 -55
7 -15 14 -31 14 -35 0 -11 64 -107 92 -138 34 -37 114 -97 168 -124 195 -99
413 -101 604 -5 121 60 233 168 286 275 8 17 19 33 25 37 5 4 7 8 3 8 -4 0 0
17 8 37 17 40 20 54 30 123 11 74 10 111 -3 190 -49 280 -260 488 -545 534
-69 12 -146 14 -192 5 -23 -4 -54 -10 -71 -12 -16 -3 -57 -11 -90 -17 -60 -12
-162 -7 -193 10 -16 8 -31 14 -127 55 -48 20 -91 34 -125 41 -14 3 -34 8 -45
11 -19 6 -70 11 -140 15 -99 4 -234 -32 -337 -89 -164 -92 -275 -229 -458
-568 -24 -44 -63 -115 -87 -159 -23 -43 -43 -80 -43 -82 0 -11 -146 -243 -183
-292 -37 -47 -109 -119 -152 -151 -16 -11 -97 -43 -125 -48 -103 -19 -267 0
-343 39 -123 62 -215 229 -243 437 -2 19 -6 46 -9 60 -9 59 -16 134 -20 212
-7 154 -18 483 -19 579 l-1 95 60 2 c33 1 161 5 285 8 417 11 616 20 670 30
19 4 44 8 55 10 42 5 112 28 173 56 59 26 181 96 192 109 3 3 25 21 50 40 198
152 342 335 396 504 13 43 27 95 30 115 3 20 9 61 15 91 10 61 22 218 23 322
1 38 4 68 7 68 7 0 9 2191 2 2203 -3 5 -6 45 -8 90 -7 196 -33 309 -108 467
-71 148 -198 305 -327 403 -30 23 -57 44 -60 47 -3 3 -15 11 -27 18 -13 6 -33
18 -45 25 -13 6 -25 14 -28 17 -10 12 -157 73 -215 90 -89 27 -140 37 -222 45
-131 12 -220 45 -273 101 -42 45 -59 51 -162 60 -74 6 -257 11 -261 8z m2750
-5466 c32 -14 98 -63 126 -93 32 -35 61 -108 62 -155 2 -55 -30 -124 -76 -165
-19 -16 -63 -40 -98 -52 -101 -34 -154 -19 -237 65 -132 133 -130 209 10 340
85 81 134 94 213 60z"/>
<path d="M2833 5204 c-38 -15 -72 -39 -100 -69 -169 -184 -31 -475 220 -461
173 10 290 169 253 344 -7 30 -48 101 -75 127 -79 78 -194 101 -298 59z"/>
<path d="M3560 5220 c-19 -3 -51 -14 -71 -24 -44 -21 -122 -94 -114 -107 4 -5
2 -9 -3 -9 -16 0 -39 -93 -36 -146 3 -69 33 -134 84 -184 56 -55 101 -73 190
-74 79 -1 133 18 182 64 12 11 25 20 29 20 4 0 19 26 35 58 30 61 42 168 23
205 -6 10 -12 27 -14 39 -8 37 -74 106 -128 133 -56 27 -118 36 -177 25z"/>
<path d="M4203 5211 c-127 -43 -202 -156 -190 -287 9 -100 83 -200 174 -236
36 -14 144 -17 183 -6 76 22 165 110 185 184 48 175 -70 345 -248 358 -35 2
-73 -3 -104 -13z"/>
<path d="M2875 4544 c-11 -3 -27 -8 -35 -11 -8 -4 -18 -7 -22 -7 -16 -2 -88
-64 -108 -93 -151 -220 59 -504 313 -424 26 8 47 18 47 23 0 4 6 8 14 8 16 0
79 67 99 107 74 145 -3 335 -158 388 -32 12 -117 16 -150 9z"/>
<path d="M3535 4539 c-61 -14 -135 -76 -168 -139 -77 -152 -9 -327 150 -386
187 -70 376 67 369 270 -6 178 -171 298 -351 255z"/>
<path d="M4215 4540 c-82 -26 -152 -87 -183 -159 -8 -20 -17 -65 -18 -101 -10
-200 203 -344 387 -261 53 24 121 93 143 145 41 99 20 215 -55 298 -27 29 -49
49 -49 44 0 -5 -8 -2 -17 6 -10 8 -32 20 -48 25 -34 12 -129 13 -160 3z"/>
<path d="M2898 3869 c-15 -4 -29 -5 -31 -2 -3 2 -27 -8 -53 -23 -211 -114
-204 -402 11 -500 145 -67 317 7 371 158 57 159 -49 344 -208 364 -24 3 -47 6
-53 8 -5 2 -22 0 -37 -5z"/>
<path d="M3554 3865 c-182 -41 -271 -234 -186 -401 36 -71 118 -130 197 -141
22 -3 42 -6 45 -6 3 -1 25 2 48 6 128 22 222 129 228 260 8 183 -155 322 -332
282z"/>
<path d="M4243 3869 c-135 -25 -224 -127 -229 -264 -2 -59 2 -79 25 -128 86
-178 313 -214 449 -71 23 25 49 62 58 82 20 49 24 139 8 177 -6 16 -13 35 -14
40 -3 25 -41 74 -81 107 -49 39 -69 48 -119 55 -19 2 -39 5 -45 7 -5 1 -29 -1
-52 -5z"/>
</g>
</svg>
